<svg aria-roledescription="er" viewBox="0 0 541.082275390625 810" style="max-width: 541.082px; background-color: white;" xmlns:xlink="http://www.w3.org/1999/xlink" xmlns="http://www.w3.org/2000/svg" width="100%" id="mermaid-0"><style>#mermaid-0{font-family:"trebuchet ms",verdana,arial,sans-serif;font-size:16px;fill:#000000;}#mermaid-0 .error-icon{fill:#552222;}#mermaid-0 .error-text{fill:#552222;stroke:#552222;}#mermaid-0 .edge-thickness-normal{stroke-width:2px;}#mermaid-0 .edge-thickness-thick{stroke-width:3.5px;}#mermaid-0 .edge-pattern-solid{stroke-dasharray:0;}#mermaid-0 .edge-pattern-dashed{stroke-dasharray:3;}#mermaid-0 .edge-pattern-dotted{stroke-dasharray:2;}#mermaid-0 .marker{fill:#000000;stroke:#000000;}#mermaid-0 .marker.cross{stroke:#000000;}#mermaid-0 svg{font-family:"trebuchet ms",verdana,arial,sans-serif;font-size:16px;}#mermaid-0 .entityBox{fill:#cde498;stroke:#13540c;}#mermaid-0 .attributeBoxOdd{fill:#ffffff;stroke:#13540c;}#mermaid-0 .attributeBoxEven{fill:#f2f2f2;stroke:#13540c;}#mermaid-0 .relationshipLabelBox{fill:hsl(78.1578947368, 58.4615384615%, 84.5098039216%);opacity:0.7;background-color:hsl(78.1578947368, 58.4615384615%, 84.5098039216%);}#mermaid-0 .relationshipLabelBox rect{opacity:0.5;}#mermaid-0 .relationshipLine{stroke:#000000;}#mermaid-0 .entityTitleText{text-anchor:middle;font-size:18px;fill:#000000;}#mermaid-0 :root{--mermaid-font-family:"trebuchet ms",verdana,arial,sans-serif;}</style><g/><defs><marker orient="auto" markerHeight="18" markerWidth="18" refY="9" refX="0" id="ONLY_ONE_START"><path d="M9,0 L9,18 M15,0 L15,18" fill="none" stroke="gray"/></marker></defs><defs><marker orient="auto" markerHeight="18" markerWidth="18" refY="9" refX="18" id="ONLY_ONE_END"><path d="M3,0 L3,18 M9,0 L9,18" fill="none" stroke="gray"/></marker></defs><defs><marker orient="auto" markerHeight="18" markerWidth="30" refY="9" refX="0" id="ZERO_OR_ONE_START"><circle r="6" cy="9" cx="21" fill="white" stroke="gray"/><path d="M9,0 L9,18" fill="none" stroke="gray"/></marker></defs><defs><marker orient="auto" markerHeight="18" markerWidth="30" refY="9" refX="30" id="ZERO_OR_ONE_END"><circle r="6" cy="9" cx="9" fill="white" stroke="gray"/><path d="M21,0 L21,18" fill="none" stroke="gray"/></marker></defs><defs><marker orient="auto" markerHeight="36" markerWidth="45" refY="18" refX="18" id="ONE_OR_MORE_START"><path d="M0,18 Q 18,0 36,18 Q 18,36 0,18 M42,9 L42,27" fill="none" stroke="gray"/></marker></defs><defs><marker orient="auto" markerHeight="36" markerWidth="45" refY="18" refX="27" id="ONE_OR_MORE_END"><path d="M3,9 L3,27 M9,18 Q27,0 45,18 Q27,36 9,18" fill="none" stroke="gray"/></marker></defs><defs><marker orient="auto" markerHeight="36" markerWidth="57" refY="18" refX="18" id="ZERO_OR_MORE_START"><circle r="6" cy="18" cx="48" fill="white" stroke="gray"/><path d="M0,18 Q18,0 36,18 Q18,36 0,18" fill="none" stroke="gray"/></marker></defs><defs><marker orient="auto" markerHeight="36" markerWidth="57" refY="18" refX="39" id="ZERO_OR_MORE_END"><circle r="6" cy="18" cx="9" fill="white" stroke="gray"/><path d="M21,18 Q39,0 57,18 Q39,36 21,18" fill="none" stroke="gray"/></marker></defs><path style="stroke: gray; fill: none;" marker-start="url(#ZERO_OR_MORE_START)" marker-end="url(#ONLY_ONE_END)" d="M312.1954464462568,132L322.04828616208255,140.33333333333334C331.9011258779082,148.66666666666666,351.6068053095596,165.33333333333334,361.45964502538527,187.5C371.31248474121094,209.66666666666666,371.31248474121094,237.33333333333334,371.31248474121094,251.16666666666666L371.31248474121094,265" class="er relationshipLine"/><path style="stroke: gray; fill: none;" marker-start="url(#ZERO_OR_MORE_START)" marker-end="url(#ONLY_ONE_END)" d="M179.77328066555958,132L169.9204409497339,140.33333333333334C160.06760123390822,148.66666666666666,140.36192180225683,165.33333333333334,130.50908208643116,182C120.65624237060547,198.66666666666666,120.65624237060547,215.33333333333334,120.65624237060547,223.66666666666666L120.65624237060547,232" class="er relationshipLine"/><path style="stroke: gray; fill: none;" marker-start="url(#ZERO_OR_MORE_START)" marker-end="url(#ONLY_ONE_END)" d="M353.24737188951025,311L342.38212285551634,324.8333333333333C331.51687382152244,338.6666666666667,309.7863757535347,366.3333333333333,298.9211267195408,397.8333333333333C288.0558776855469,429.3333333333333,288.0558776855469,464.6666666666667,288.0558776855469,500C288.0558776855469,535.3333333333334,288.0558776855469,570.6666666666666,293.98583545304433,596.6666666666666C299.91579322054173,622.6666666666666,311.77570875553664,639.3333333333334,317.70566652303404,647.6666666666666L323.6356242905315,656" class="er relationshipLine"/><path style="stroke: gray; fill: none;" marker-start="url(#ZERO_OR_MORE_START)" marker-end="url(#ONLY_ONE_END)" d="M389.3775975929116,311L400.24284662690553,324.8333333333333C411.1080956608994,338.6666666666667,432.8385937288872,366.3333333333333,443.7038427628811,388.5C454.569091796875,410.6666666666667,454.569091796875,427.3333333333333,454.569091796875,435.6666666666667L454.569091796875,444" class="er relationshipLine"/><path style="stroke: gray; fill: none;" marker-start="url(#ZERO_OR_MORE_START)" marker-end="url(#ZERO_OR_ONE_END)" d="M454.569091796875,556L454.569091796875,564.3333333333334C454.569091796875,572.6666666666666,454.569091796875,589.3333333333334,448.6391340293776,606C442.70917626188015,622.6666666666666,430.84926072688523,639.3333333333334,424.91930295938784,647.6666666666666L418.9893451918904,656" class="er relationshipLine"/><g transform="translate(20,232 )" id="entity-Game-e64e883c-2388-458a-b5bc-a44f3162ea72"><rect height="112" width="201.31248474121094" y="0" x="0" class="er entityBox"/><text style="dominant-baseline: middle; text-anchor: middle; font-size: 12px;" transform="translate(100.65624237060547,12)" y="0" x="0" id="text-entity-Game-e64e883c-2388-458a-b5bc-a44f3162ea72" class="er entityLabel">Game</text><rect height="22" width="54.095550537109375" y="24" x="0" class="er attributeBoxOdd"/><text style="dominant-baseline: middle; font-size: 10.2px;" transform="translate(5,35)" y="0" x="0" id="text-entity-Game-e64e883c-2388-458a-b5bc-a44f3162ea72-attr-1-type" class="er entityLabel">String</text><rect height="22" width="124.52925109863281" y="24" x="54.095550537109375" class="er attributeBoxOdd"/><text style="dominant-baseline: middle; font-size: 10.2px;" transform="translate(59.095550537109375,35)" y="0" x="0" id="text-entity-Game-e64e883c-2388-458a-b5bc-a44f3162ea72-attr-1-name" class="er entityLabel">id</text><rect height="22" width="22.68768310546875" y="24" x="178.6248016357422" class="er attributeBoxOdd"/><text style="dominant-baseline: middle; font-size: 10.2px;" transform="translate(183.6248016357422,35)" y="0" x="0" id="text-entity-Game-e64e883c-2388-458a-b5bc-a44f3162ea72-attr-1-key" class="er entityLabel">PK</text><rect height="22" width="54.095550537109375" y="46" x="0" class="er attributeBoxEven"/><text style="dominant-baseline: middle; font-size: 10.2px;" transform="translate(5,57)" y="0" x="0" id="text-entity-Game-e64e883c-2388-458a-b5bc-a44f3162ea72-attr-2-type" class="er entityLabel">DateTime</text><rect height="22" width="124.52925109863281" y="46" x="54.095550537109375" class="er attributeBoxEven"/><text style="dominant-baseline: middle; font-size: 10.2px;" transform="translate(59.095550537109375,57)" y="0" x="0" id="text-entity-Game-e64e883c-2388-458a-b5bc-a44f3162ea72-attr-2-name" class="er entityLabel">date</text><rect height="22" width="22.68768310546875" y="46" x="178.6248016357422" class="er attributeBoxEven"/><text style="dominant-baseline: middle; font-size: 10.2px;" transform="translate(183.6248016357422,57)" y="0" x="0" id="text-entity-Game-e64e883c-2388-458a-b5bc-a44f3162ea72-attr-2-key" class="er entityLabel"/><rect height="22" width="54.095550537109375" y="68" x="0" class="er attributeBoxOdd"/><text style="dominant-baseline: middle; font-size: 10.2px;" transform="translate(5,79)" y="0" x="0" id="text-entity-Game-e64e883c-2388-458a-b5bc-a44f3162ea72-attr-3-type" class="er entityLabel">String</text><rect height="22" width="124.52925109863281" y="68" x="54.095550537109375" class="er attributeBoxOdd"/><text style="dominant-baseline: middle; font-size: 10.2px;" transform="translate(59.095550537109375,79)" y="0" x="0" id="text-entity-Game-e64e883c-2388-458a-b5bc-a44f3162ea72-attr-3-name" class="er entityLabel">firstTeamCountryCode</text><rect height="22" width="22.68768310546875" y="68" x="178.6248016357422" class="er attributeBoxOdd"/><text style="dominant-baseline: middle; font-size: 10.2px;" transform="translate(183.6248016357422,79)" y="0" x="0" id="text-entity-Game-e64e883c-2388-458a-b5bc-a44f3162ea72-attr-3-key" class="er entityLabel"/><rect height="22" width="54.095550537109375" y="90" x="0" class="er attributeBoxEven"/><text style="dominant-baseline: middle; font-size: 10.2px;" transform="translate(5,101)" y="0" x="0" id="text-entity-Game-e64e883c-2388-458a-b5bc-a44f3162ea72-attr-4-type" class="er entityLabel">String</text><rect height="22" width="124.52925109863281" y="90" x="54.095550537109375" class="er attributeBoxEven"/><text style="dominant-baseline: middle; font-size: 10.2px;" transform="translate(59.095550537109375,101)" y="0" x="0" id="text-entity-Game-e64e883c-2388-458a-b5bc-a44f3162ea72-attr-4-name" class="er entityLabel">secondTeamCountryCode</text><rect height="22" width="22.68768310546875" y="90" x="178.6248016357422" class="er attributeBoxEven"/><text style="dominant-baseline: middle; font-size: 10.2px;" transform="translate(183.6248016357422,101)" y="0" x="0" id="text-entity-Game-e64e883c-2388-458a-b5bc-a44f3162ea72-attr-4-key" class="er entityLabel"/></g><g transform="translate(160.7321662902832,20 )" id="entity-Guess-405bdbb3-53c4-42cf-b5bd-ca7e0281a61e"><rect height="112" width="170.50439453125" y="0" x="0" class="er entityBox"/><text style="dominant-baseline: middle; text-anchor: middle; font-size: 12px;" transform="translate(85.252197265625,12)" y="0" x="0" id="text-entity-Guess-405bdbb3-53c4-42cf-b5bd-ca7e0281a61e" class="er entityLabel">Guess</text><rect height="22" width="54.095550537109375" y="24" x="0" class="er attributeBoxOdd"/><text style="dominant-baseline: middle; font-size: 10.2px;" transform="translate(5,35)" y="0" x="0" id="text-entity-Guess-405bdbb3-53c4-42cf-b5bd-ca7e0281a61e-attr-1-type" class="er entityLabel">String</text><rect height="22" width="93.72116088867188" y="24" x="54.095550537109375" class="er attributeBoxOdd"/><text style="dominant-baseline: middle; font-size: 10.2px;" transform="translate(59.095550537109375,35)" y="0" x="0" id="text-entity-Guess-405bdbb3-53c4-42cf-b5bd-ca7e0281a61e-attr-1-name" class="er entityLabel">id</text><rect height="22" width="22.68768310546875" y="24" x="147.81671142578125" class="er attributeBoxOdd"/><text style="dominant-baseline: middle; font-size: 10.2px;" transform="translate(152.81671142578125,35)" y="0" x="0" id="text-entity-Guess-405bdbb3-53c4-42cf-b5bd-ca7e0281a61e-attr-1-key" class="er entityLabel">PK</text><rect height="22" width="54.095550537109375" y="46" x="0" class="er attributeBoxEven"/><text style="dominant-baseline: middle; font-size: 10.2px;" transform="translate(5,57)" y="0" x="0" id="text-entity-Guess-405bdbb3-53c4-42cf-b5bd-ca7e0281a61e-attr-2-type" class="er entityLabel">Int</text><rect height="22" width="93.72116088867188" y="46" x="54.095550537109375" class="er attributeBoxEven"/><text style="dominant-baseline: middle; font-size: 10.2px;" transform="translate(59.095550537109375,57)" y="0" x="0" id="text-entity-Guess-405bdbb3-53c4-42cf-b5bd-ca7e0281a61e-attr-2-name" class="er entityLabel">firstTeamPoints</text><rect height="22" width="22.68768310546875" y="46" x="147.81671142578125" class="er attributeBoxEven"/><text style="dominant-baseline: middle; font-size: 10.2px;" transform="translate(152.81671142578125,57)" y="0" x="0" id="text-entity-Guess-405bdbb3-53c4-42cf-b5bd-ca7e0281a61e-attr-2-key" class="er entityLabel"/><rect height="22" width="54.095550537109375" y="68" x="0" class="er attributeBoxOdd"/><text style="dominant-baseline: middle; font-size: 10.2px;" transform="translate(5,79)" y="0" x="0" id="text-entity-Guess-405bdbb3-53c4-42cf-b5bd-ca7e0281a61e-attr-3-type" class="er entityLabel">Int</text><rect height="22" width="93.72116088867188" y="68" x="54.095550537109375" class="er attributeBoxOdd"/><text style="dominant-baseline: middle; font-size: 10.2px;" transform="translate(59.095550537109375,79)" y="0" x="0" id="text-entity-Guess-405bdbb3-53c4-42cf-b5bd-ca7e0281a61e-attr-3-name" class="er entityLabel">secondTeamPoints</text><rect height="22" width="22.68768310546875" y="68" x="147.81671142578125" class="er attributeBoxOdd"/><text style="dominant-baseline: middle; font-size: 10.2px;" transform="translate(152.81671142578125,79)" y="0" x="0" id="text-entity-Guess-405bdbb3-53c4-42cf-b5bd-ca7e0281a61e-attr-3-key" class="er entityLabel"/><rect height="22" width="54.095550537109375" y="90" x="0" class="er attributeBoxEven"/><text style="dominant-baseline: middle; font-size: 10.2px;" transform="translate(5,101)" y="0" x="0" id="text-entity-Guess-405bdbb3-53c4-42cf-b5bd-ca7e0281a61e-attr-4-type" class="er entityLabel">DateTime</text><rect height="22" width="93.72116088867188" y="90" x="54.095550537109375" class="er attributeBoxEven"/><text style="dominant-baseline: middle; font-size: 10.2px;" transform="translate(59.095550537109375,101)" y="0" x="0" id="text-entity-Guess-405bdbb3-53c4-42cf-b5bd-ca7e0281a61e-attr-4-name" class="er entityLabel">createdAt</text><rect height="22" width="22.68768310546875" y="90" x="147.81671142578125" class="er attributeBoxEven"/><text style="dominant-baseline: middle; font-size: 10.2px;" transform="translate(152.81671142578125,101)" y="0" x="0" id="text-entity-Guess-405bdbb3-53c4-42cf-b5bd-ca7e0281a61e-attr-4-key" class="er entityLabel"/></g><g transform="translate(321.31248474121094,265 )" id="entity-Participant-ec426602-e800-4e66-be6b-e33849d3c410"><rect height="46" width="100" y="0" x="0" class="er entityBox"/><text style="dominant-baseline: middle; text-anchor: middle; font-size: 12px;" transform="translate(50,12)" y="0" x="0" id="text-entity-Participant-ec426602-e800-4e66-be6b-e33849d3c410" class="er entityLabel">Participant</text><rect height="22" width="44.39861551920573" y="24" x="0" class="er attributeBoxOdd"/><text style="dominant-baseline: middle; font-size: 10.2px;" transform="translate(5,35)" y="0" x="0" id="text-entity-Participant-ec426602-e800-4e66-be6b-e33849d3c410-attr-1-type" class="er entityLabel">String</text><rect height="22" width="25.911142985026043" y="24" x="44.39861551920573" class="er attributeBoxOdd"/><text style="dominant-baseline: middle; font-size: 10.2px;" transform="translate(49.39861551920573,35)" y="0" x="0" id="text-entity-Participant-ec426602-e800-4e66-be6b-e33849d3c410-attr-1-name" class="er entityLabel">id</text><rect height="22" width="29.69024149576823" y="24" x="70.30975850423177" class="er attributeBoxOdd"/><text style="dominant-baseline: middle; font-size: 10.2px;" transform="translate(75.30975850423177,35)" y="0" x="0" id="text-entity-Participant-ec426602-e800-4e66-be6b-e33849d3c410-attr-1-key" class="er entityLabel">PK</text></g><g transform="translate(388.0558776855469,444 )" id="entity-Poll-eb6ed86a-76fe-43fb-b3ed-52b5e5e6b060"><rect height="112" width="133.02642822265625" y="0" x="0" class="er entityBox"/><text style="dominant-baseline: middle; text-anchor: middle; font-size: 12px;" transform="translate(66.51321411132812,12)" y="0" x="0" id="text-entity-Poll-eb6ed86a-76fe-43fb-b3ed-52b5e5e6b060" class="er entityLabel">Poll</text><rect height="22" width="54.095550537109375" y="24" x="0" class="er attributeBoxOdd"/><text style="dominant-baseline: middle; font-size: 10.2px;" transform="translate(5,35)" y="0" x="0" id="text-entity-Poll-eb6ed86a-76fe-43fb-b3ed-52b5e5e6b060-attr-1-type" class="er entityLabel">String</text><rect height="22" width="56.243194580078125" y="24" x="54.095550537109375" class="er attributeBoxOdd"/><text style="dominant-baseline: middle; font-size: 10.2px;" transform="translate(59.095550537109375,35)" y="0" x="0" id="text-entity-Poll-eb6ed86a-76fe-43fb-b3ed-52b5e5e6b060-attr-1-name" class="er entityLabel">id</text><rect height="22" width="22.68768310546875" y="24" x="110.3387451171875" class="er attributeBoxOdd"/><text style="dominant-baseline: middle; font-size: 10.2px;" transform="translate(115.3387451171875,35)" y="0" x="0" id="text-entity-Poll-eb6ed86a-76fe-43fb-b3ed-52b5e5e6b060-attr-1-key" class="er entityLabel">PK</text><rect height="22" width="54.095550537109375" y="46" x="0" class="er attributeBoxEven"/><text style="dominant-baseline: middle; font-size: 10.2px;" transform="translate(5,57)" y="0" x="0" id="text-entity-Poll-eb6ed86a-76fe-43fb-b3ed-52b5e5e6b060-attr-2-type" class="er entityLabel">String</text><rect height="22" width="56.243194580078125" y="46" x="54.095550537109375" class="er attributeBoxEven"/><text style="dominant-baseline: middle; font-size: 10.2px;" transform="translate(59.095550537109375,57)" y="0" x="0" id="text-entity-Poll-eb6ed86a-76fe-43fb-b3ed-52b5e5e6b060-attr-2-name" class="er entityLabel">title</text><rect height="22" width="22.68768310546875" y="46" x="110.3387451171875" class="er attributeBoxEven"/><text style="dominant-baseline: middle; font-size: 10.2px;" transform="translate(115.3387451171875,57)" y="0" x="0" id="text-entity-Poll-eb6ed86a-76fe-43fb-b3ed-52b5e5e6b060-attr-2-key" class="er entityLabel"/><rect height="22" width="54.095550537109375" y="68" x="0" class="er attributeBoxOdd"/><text style="dominant-baseline: middle; font-size: 10.2px;" transform="translate(5,79)" y="0" x="0" id="text-entity-Poll-eb6ed86a-76fe-43fb-b3ed-52b5e5e6b060-attr-3-type" class="er entityLabel">String</text><rect height="22" width="56.243194580078125" y="68" x="54.095550537109375" class="er attributeBoxOdd"/><text style="dominant-baseline: middle; font-size: 10.2px;" transform="translate(59.095550537109375,79)" y="0" x="0" id="text-entity-Poll-eb6ed86a-76fe-43fb-b3ed-52b5e5e6b060-attr-3-name" class="er entityLabel">code</text><rect height="22" width="22.68768310546875" y="68" x="110.3387451171875" class="er attributeBoxOdd"/><text style="dominant-baseline: middle; font-size: 10.2px;" transform="translate(115.3387451171875,79)" y="0" x="0" id="text-entity-Poll-eb6ed86a-76fe-43fb-b3ed-52b5e5e6b060-attr-3-key" class="er entityLabel"/><rect height="22" width="54.095550537109375" y="90" x="0" class="er attributeBoxEven"/><text style="dominant-baseline: middle; font-size: 10.2px;" transform="translate(5,101)" y="0" x="0" id="text-entity-Poll-eb6ed86a-76fe-43fb-b3ed-52b5e5e6b060-attr-4-type" class="er entityLabel">DateTime</text><rect height="22" width="56.243194580078125" y="90" x="54.095550537109375" class="er attributeBoxEven"/><text style="dominant-baseline: middle; font-size: 10.2px;" transform="translate(59.095550537109375,101)" y="0" x="0" id="text-entity-Poll-eb6ed86a-76fe-43fb-b3ed-52b5e5e6b060-attr-4-name" class="er entityLabel">createdAt</text><rect height="22" width="22.68768310546875" y="90" x="110.3387451171875" class="er attributeBoxEven"/><text style="dominant-baseline: middle; font-size: 10.2px;" transform="translate(115.3387451171875,101)" y="0" x="0" id="text-entity-Poll-eb6ed86a-76fe-43fb-b3ed-52b5e5e6b060-attr-4-key" class="er entityLabel"/></g><g transform="translate(281.19300079345703,656 )" id="entity-User-686d1332-e0b6-4ba1-b4c8-f881e80b5443"><rect height="134" width="180.2389678955078" y="0" x="0" class="er entityBox"/><text style="dominant-baseline: middle; text-anchor: middle; font-size: 12px;" transform="translate(90.1194839477539,12)" y="0" x="0" id="text-entity-User-686d1332-e0b6-4ba1-b4c8-f881e80b5443" class="er entityLabel">User</text><rect height="22" width="54.095550537109375" y="24" x="0" class="er attributeBoxOdd"/><text style="dominant-baseline: middle; font-size: 10.2px;" transform="translate(5,35)" y="0" x="0" id="text-entity-User-686d1332-e0b6-4ba1-b4c8-f881e80b5443-attr-1-type" class="er entityLabel">String</text><rect height="22" width="56.243194580078125" y="24" x="54.095550537109375" class="er attributeBoxOdd"/><text style="dominant-baseline: middle; font-size: 10.2px;" transform="translate(59.095550537109375,35)" y="0" x="0" id="text-entity-User-686d1332-e0b6-4ba1-b4c8-f881e80b5443-attr-1-name" class="er entityLabel">id</text><rect height="22" width="22.68768310546875" y="24" x="110.3387451171875" class="er attributeBoxOdd"/><text style="dominant-baseline: middle; font-size: 10.2px;" transform="translate(115.3387451171875,35)" y="0" x="0" id="text-entity-User-686d1332-e0b6-4ba1-b4c8-f881e80b5443-attr-1-key" class="er entityLabel">PK</text><rect height="22" width="47.21253967285156" y="24" x="133.02642822265625" class="er attributeBoxOdd"/><text style="dominant-baseline: middle; font-size: 10.2px;" transform="translate(138.02642822265625,35)" y="0" x="0" id="text-entity-User-686d1332-e0b6-4ba1-b4c8-f881e80b5443-attr-1-comment" class="er entityLabel"/><rect height="22" width="54.095550537109375" y="46" x="0" class="er attributeBoxEven"/><text style="dominant-baseline: middle; font-size: 10.2px;" transform="translate(5,57)" y="0" x="0" id="text-entity-User-686d1332-e0b6-4ba1-b4c8-f881e80b5443-attr-2-type" class="er entityLabel">String</text><rect height="22" width="56.243194580078125" y="46" x="54.095550537109375" class="er attributeBoxEven"/><text style="dominant-baseline: middle; font-size: 10.2px;" transform="translate(59.095550537109375,57)" y="0" x="0" id="text-entity-User-686d1332-e0b6-4ba1-b4c8-f881e80b5443-attr-2-name" class="er entityLabel">name</text><rect height="22" width="22.68768310546875" y="46" x="110.3387451171875" class="er attributeBoxEven"/><text style="dominant-baseline: middle; font-size: 10.2px;" transform="translate(115.3387451171875,57)" y="0" x="0" id="text-entity-User-686d1332-e0b6-4ba1-b4c8-f881e80b5443-attr-2-key" class="er entityLabel"/><rect height="22" width="47.21253967285156" y="46" x="133.02642822265625" class="er attributeBoxEven"/><text style="dominant-baseline: middle; font-size: 10.2px;" transform="translate(138.02642822265625,57)" y="0" x="0" id="text-entity-User-686d1332-e0b6-4ba1-b4c8-f881e80b5443-attr-2-comment" class="er entityLabel"/><rect height="22" width="54.095550537109375" y="68" x="0" class="er attributeBoxOdd"/><text style="dominant-baseline: middle; font-size: 10.2px;" transform="translate(5,79)" y="0" x="0" id="text-entity-User-686d1332-e0b6-4ba1-b4c8-f881e80b5443-attr-3-type" class="er entityLabel">String</text><rect height="22" width="56.243194580078125" y="68" x="54.095550537109375" class="er attributeBoxOdd"/><text style="dominant-baseline: middle; font-size: 10.2px;" transform="translate(59.095550537109375,79)" y="0" x="0" id="text-entity-User-686d1332-e0b6-4ba1-b4c8-f881e80b5443-attr-3-name" class="er entityLabel">email</text><rect height="22" width="22.68768310546875" y="68" x="110.3387451171875" class="er attributeBoxOdd"/><text style="dominant-baseline: middle; font-size: 10.2px;" transform="translate(115.3387451171875,79)" y="0" x="0" id="text-entity-User-686d1332-e0b6-4ba1-b4c8-f881e80b5443-attr-3-key" class="er entityLabel"/><rect height="22" width="47.21253967285156" y="68" x="133.02642822265625" class="er attributeBoxOdd"/><text style="dominant-baseline: middle; font-size: 10.2px;" transform="translate(138.02642822265625,79)" y="0" x="0" id="text-entity-User-686d1332-e0b6-4ba1-b4c8-f881e80b5443-attr-3-comment" class="er entityLabel"/><rect height="22" width="54.095550537109375" y="90" x="0" class="er attributeBoxEven"/><text style="dominant-baseline: middle; font-size: 10.2px;" transform="translate(5,101)" y="0" x="0" id="text-entity-User-686d1332-e0b6-4ba1-b4c8-f881e80b5443-attr-4-type" class="er entityLabel">String</text><rect height="22" width="56.243194580078125" y="90" x="54.095550537109375" class="er attributeBoxEven"/><text style="dominant-baseline: middle; font-size: 10.2px;" transform="translate(59.095550537109375,101)" y="0" x="0" id="text-entity-User-686d1332-e0b6-4ba1-b4c8-f881e80b5443-attr-4-name" class="er entityLabel">avatarUrl</text><rect height="22" width="22.68768310546875" y="90" x="110.3387451171875" class="er attributeBoxEven"/><text style="dominant-baseline: middle; font-size: 10.2px;" transform="translate(115.3387451171875,101)" y="0" x="0" id="text-entity-User-686d1332-e0b6-4ba1-b4c8-f881e80b5443-attr-4-key" class="er entityLabel"/><rect height="22" width="47.21253967285156" y="90" x="133.02642822265625" class="er attributeBoxEven"/><text style="dominant-baseline: middle; font-size: 10.2px;" transform="translate(138.02642822265625,101)" y="0" x="0" id="text-entity-User-686d1332-e0b6-4ba1-b4c8-f881e80b5443-attr-4-comment" class="er entityLabel">nullable</text><rect height="22" width="54.095550537109375" y="112" x="0" class="er attributeBoxOdd"/><text style="dominant-baseline: middle; font-size: 10.2px;" transform="translate(5,123)" y="0" x="0" id="text-entity-User-686d1332-e0b6-4ba1-b4c8-f881e80b5443-attr-5-type" class="er entityLabel">DateTime</text><rect height="22" width="56.243194580078125" y="112" x="54.095550537109375" class="er attributeBoxOdd"/><text style="dominant-baseline: middle; font-size: 10.2px;" transform="translate(59.095550537109375,123)" y="0" x="0" id="text-entity-User-686d1332-e0b6-4ba1-b4c8-f881e80b5443-attr-5-name" class="er entityLabel">createdAt</text><rect height="22" width="22.68768310546875" y="112" x="110.3387451171875" class="er attributeBoxOdd"/><text style="dominant-baseline: middle; font-size: 10.2px;" transform="translate(115.3387451171875,123)" y="0" x="0" id="text-entity-User-686d1332-e0b6-4ba1-b4c8-f881e80b5443-attr-5-key" class="er entityLabel"/><rect height="22" width="47.21253967285156" y="112" x="133.02642822265625" class="er attributeBoxOdd"/><text style="dominant-baseline: middle; font-size: 10.2px;" transform="translate(138.02642822265625,123)" y="0" x="0" id="text-entity-User-686d1332-e0b6-4ba1-b4c8-f881e80b5443-attr-5-comment" class="er entityLabel"/></g><rect height="14" width="59.744140625" y="182.2556610107422" x="332.3427734375" class="er relationshipLabelBox"/><text style="text-anchor: middle; dominant-baseline: middle; font-size: 12px;" y="189.2556610107422" x="362.21484375" id="rel1" class="er relationshipLabel">participant</text><rect height="14" width="29.2890625" y="167.22164916992188" x="121.12774658203125" class="er relationshipLabelBox"/><text style="text-anchor: middle; dominant-baseline: middle; font-size: 12px;" y="174.22164916992188" x="135.77227783203125" id="rel2" class="er relationshipLabel">game</text><rect height="14" width="23.958984375" y="471.861572265625" x="276.1632080078125" class="er relationshipLabelBox"/><text style="text-anchor: middle; dominant-baseline: middle; font-size: 12px;" y="478.861572265625" x="288.1427001953125" id="rel3" class="er relationshipLabel">user</text><rect height="14" width="20.6640625" y="365.1331481933594" x="424.1440734863281" class="er relationshipLabelBox"/><text style="text-anchor: middle; dominant-baseline: middle; font-size: 12px;" y="372.1331481933594" x="434.4761047363281" id="rel4" class="er relationshipLabel">poll</text><rect height="14" width="34.470703125" y="602.5916137695312" x="430.0370788574219" class="er relationshipLabelBox"/><text style="text-anchor: middle; dominant-baseline: middle; font-size: 12px;" y="609.5916137695312" x="447.2724304199219" id="rel5" class="er relationshipLabel">owner</text></svg>